<svg version="1.1" id="Layer_1" xmlns="http://www.w3.org/2000/svg" xmlns:xlink="http://www.w3.org/1999/xlink" 
	 viewBox="0 0 330 330" xml:space="preserve">
<g id="XMLID_239_">
	<path id="XMLID_240_" d="M285,0c-24.814,0-45,20.187-45,45c0,12.843,5.417,24.438,14.076,32.645L208.52,180.151
		c-1.163-0.09-2.334-0.151-3.52-0.151c-3.814,0-7.516,0.48-11.055,1.378l-32.941-49.415C166.65,124.443,170,115.106,170,105
		c0-24.813-20.188-45-45-45c-24.813,0-45,20.187-45,45c0,12.844,5.417,24.439,14.076,32.645L48.519,240.151
		C47.355,240.06,46.185,240,45,240c-24.813,0-45,20.187-45,45s20.187,45,45,45c24.813,0,45-20.187,45-45
		c0-12.843-5.418-24.439-14.076-32.645l45.558-102.506c1.162,0.09,2.333,0.151,3.519,0.151c3.813,0,7.516-0.48,11.054-1.378
		l32.942,49.414C163.35,205.556,160,214.894,160,225c0,24.813,20.186,45,45,45s45-20.187,45-45c0-12.843-5.417-24.438-14.076-32.645
		L281.48,89.849C282.644,89.939,283.815,90,285,90c24.814,0,45-20.187,45-45S309.814,0,285,0z"/>
</g>
</svg>
