<svg id="Capa_1" enable-background="new 0 0 480 480" viewBox="0 0 480 480" xmlns="http://www.w3.org/2000/svg"><g><g><circle cx="240" cy="240" fill="#b8bac0" r="240"/></g><g><g><path d="m240 360.07c-27.944 0-53.297-11.991-72.003-31.372-.014 11.615-.436 28.379-3.516 40.611 2.02 1.235 3.588 3.262 3.894 5.784 3.992 32.484 34.781 56.977 71.625 56.977 36.836 0 67.625-24.496 71.625-56.977.31-2.525 1.844-4.549 3.895-5.78-3.08-12.233-3.503-28.999-3.517-40.615-18.706 19.381-44.059 31.372-72.003 31.372z" fill="#fff"/></g></g><g><g><path d="m310.44 330.174c-18.549 18.477-43.242 29.896-70.44 29.896-27.944 0-53.297-11.991-72.003-31.372-.014 11.615-.436 28.379-3.516 40.611 2.02 1.235 3.588 3.262 3.894 5.784 1.765 14.359 8.778 27.144 19.223 36.954 48.168-6.782 102.839-54.345 122.842-81.873z" fill="#d7dbe0"/></g></g><g><g><path d="m312 160.07h-136c-22.055 0-40 17.945-40 40v48c0 61.758 46.656 112 104 112s104-50.242 104-112v-56c0-17.644-14.352-32-32-32z" fill="#fff"/></g></g><g><g><path d="m296 72.07h-104c-15.047 0-27.695 10.438-31.102 24.449-27.539 3.501-48.898 27.079-48.898 55.551v40c0 20.617 8.752 39.851 24 53.52v-45.52c0-22.055 17.945-40 40-40h136c17.648 0 32 14.355 32 32v53.511c15.251-13.667 24-32.899 24-53.511v-48c0-39.699-32.297-72-72-72z" fill="#5c546a"/></g></g><g><path d="m61.632 400.544c43.93 48.775 107.559 79.456 178.368 79.456s134.438-30.681 178.368-79.456c-7.66-10.356-18.462-18.77-32.352-22.659-.32-.09-.641-.16-.969-.207l-63.859-9.582c-.391-.059-1.227-.09-1.625-.09-4.039 0-7.445 3.012-7.938 7.023-4 32.48-34.789 56.977-71.625 56.977-36.844 0-67.633-24.492-71.625-56.977-.5-4.129-4.219-7.234-8.141-7.02-.469-.027-.93.012-1.422.086l-63.859 9.582c-.328.047-.648.117-.969.207-13.89 3.891-24.692 12.304-32.352 22.66z" fill="#5c546a"/></g></g><g/><g/><g/><g/><g/><g/><g/><g/><g/><g/><g/><g/><g/><g/><g/></svg>