<svg id="Capa_1" enable-background="new 0 0 512.054 512.054" height="512" viewBox="0 0 512.054 512.054" width="512" xmlns="http://www.w3.org/2000/svg"><g><path d="m307.174 35.174-104.066 104.066c-11.035 11.035-19.633 23.777-25.631 37.951-14.024 5.945-26.913 14.593-38.008 25.688l-104.295 104.295c-46.896 46.895-46.902 122.803 0 169.705 46.893 46.895 122.804 46.903 169.705 0l104.294-104.294c11.036-11.036 19.634-23.778 25.631-37.951 14.025-5.945 26.913-14.593 38.009-25.688l104.067-104.066c46.896-46.895 46.902-122.803 0-169.705-46.894-46.896-122.804-46.904-169.706-.001zm-19.213 316.198-104.295 104.295c-35.172 35.172-92.102 35.176-127.279 0-35.172-35.173-35.176-92.102 0-127.279l104.294-104.294c35.091-35.091 92.188-35.091 127.279 0 7.223 7.223 13.051 15.412 17.405 24.429-11.71 8.351-28.118 7.284-38.618-3.216-23.394-23.395-61.459-23.395-84.853 0l-104.293 104.294c-23.422 23.422-23.424 61.429 0 84.853 23.422 23.422 61.429 23.424 84.853 0l94.414-94.414c12.08 3.218 24.744 4.576 37.792 3.865-2.079 2.59-4.313 5.081-6.699 7.467zm-2.663-167.042 85.516-85.516c11.699-11.698 30.728-11.698 42.427 0 11.698 11.699 11.698 30.728 0 42.427l-85.521 85.521c-5.101-8.644-11.296-16.631-18.546-23.881-7.253-7.254-15.275-13.459-23.876-18.551zm-82.189 124.616c7.253 7.253 15.275 13.458 23.876 18.55l-85.745 85.744c-11.699 11.698-30.728 11.698-42.427 0-11.698-11.699-11.698-30.728 0-42.427l85.749-85.749c5.101 8.645 11.297 16.632 18.547 23.882zm252.558-125.279-104.066 104.066c-35.091 35.091-92.188 35.091-127.279 0-7.223-7.223-13.052-15.413-17.406-24.431 11.559-8.257 27.997-7.404 38.619 3.217 23.394 23.395 61.459 23.395 84.853 0l104.066-104.066c23.422-23.422 23.424-61.429 0-84.853-23.422-23.422-61.429-23.424-84.853 0l-94.186 94.186c-12.08-3.218-24.744-4.576-37.793-3.865 2.079-2.591 4.313-5.083 6.699-7.468l104.067-104.066c35.172-35.172 92.102-35.176 127.279 0 35.172 35.173 35.176 92.103 0 127.28z"/></g></svg>