<svg height="512" viewBox="0 0 64 64" width="512" xmlns="http://www.w3.org/2000/svg"><g id="Layer_77" data-name="Layer 77"><path d="m48 3.25h-32a12.76 12.76 0 0 0 -12.75 12.75v32a12.76 12.76 0 0 0 12.75 12.75h32a12.76 12.76 0 0 0 12.75-12.75v-32a12.76 12.76 0 0 0 -12.75-12.75zm4 29.75h-5.37a.74.74 0 0 1 -.73-.57l-3.57-14.2-9.73 30.53a.75.75 0 0 1 -.72.52.74.74 0 0 1 -.71-.52l-9.74-30.55-3.57 14.2a.74.74 0 0 1 -.73.57h-5.13a.75.75 0 0 1 0-1.5h4.55l4.07-16.19a.75.75 0 0 1 1.44 0l9.82 30.82 9.82-30.87a.77.77 0 0 1 .74-.52.75.75 0 0 1 .7.57l4.07 16.19h4.79a.75.75 0 1 1 0 1.52z"/></g></svg>