<svg id="Line" height="512" viewBox="0 0 128 128" width="512" xmlns="http://www.w3.org/2000/svg"><path d="m79.051 94.326h-30.1a1 1 0 1 1 0-2h30.1a1 1 0 1 1 0 2z"/><path d="m90.41 76.308a1 1 0 0 1 -.834-.447l-15.932-23.973a1 1 0 0 1 1.666-1.108l15.932 23.974a1 1 0 0 1 -.832 1.554z"/><path d="m37.311 76.176a1 1 0 0 1 -.84-1.542l15.296-23.734a1 1 0 0 1 1.681 1.084l-15.3 23.738a1 1 0 0 1 -.837.454z"/><path d="m63.456 55.648a20.975 20.975 0 1 1 20.976-20.975 21 21 0 0 1 -20.976 20.975zm0-39.95a18.975 18.975 0 1 0 18.976 18.975 19 19 0 0 0 -18.976-18.973z"/><path d="m28.976 114.3a20.975 20.975 0 1 1 20.974-20.973 21 21 0 0 1 -20.974 20.973zm0-39.95a18.975 18.975 0 1 0 18.974 18.977 19 19 0 0 0 -18.974-18.975z"/><path d="m99.024 114.3a20.975 20.975 0 1 1 20.976-20.973 21 21 0 0 1 -20.976 20.973zm0-39.95a18.975 18.975 0 1 0 18.976 18.977 19 19 0 0 0 -18.976-18.975z"/><path d="m64.272 41.642a1 1 0 0 1 -1-1v-11.648a7.851 7.851 0 0 1 -3.051 2.461 1 1 0 0 1 -.724-1.864c.123-.05 2.845-1.2 3.8-5.317a1 1 0 0 1 1.973.227v16.141a1 1 0 0 1 -.998 1z"/><path d="m67.051 41.642h-5.625a1 1 0 0 1 0-2h5.625a1 1 0 0 1 0 2z"/><path d="m106.1 102.519h-11.674a1 1 0 0 1 -.752-1.66l7.765-8.867a4.584 4.584 0 0 0 1.176-3.121 3.389 3.389 0 0 0 -3.415-3.657c-1.883 0-3.414 1.857-3.414 4.14a1 1 0 0 1 -2 0c0-3.386 2.429-6.14 5.414-6.14a5.358 5.358 0 0 1 5.415 5.657 6.59 6.59 0 0 1 -1.692 4.462l-6.292 7.186h9.469a1 1 0 0 1 0 2z"/><path d="m28.985 103.474a5.8 5.8 0 0 1 -5.814-5.8 1 1 0 0 1 2 0 3.8 3.8 0 1 0 3.805-3.805 1 1 0 0 1 0-2 3.8 3.8 0 1 0 -3.8-3.8 1 1 0 0 1 -2 0 5.8 5.8 0 1 1 9.064 4.8 5.818 5.818 0 0 1 2.432 5.959 5.779 5.779 0 0 1 -4.537 4.537 5.947 5.947 0 0 1 -1.15.109z"/></svg>